<?xml version="1.0" encoding="utf-8"?>
<!-- Generator: Adobe Illustrator 27.5.0, SVG Export Plug-In . SVG Version: 6.00 Build 0)  -->
<svg version="1.1" xmlns="http://www.w3.org/2000/svg" xmlns:xlink="http://www.w3.org/1999/xlink" x="0px" y="0px"
	 viewBox="0 0 500 500" style="enable-background:new 0 0 500 500;" xml:space="preserve">
<g id="BACKGROUND">
	<path style="fill:#FFFFFF;" d="M500,0v500H0V0H500z"/>
</g>
<g id="OBJECTS">
	
		<ellipse transform="matrix(0.7071 -0.7071 0.7071 0.7071 -68.8546 221.7365)" style="fill:#C1F5F5;" cx="233.232" cy="193.983" rx="143.983" ry="143.983"/>
	<path style="fill:#FFFFFF;" d="M315.691,134.656l-2.352-0.902c-0.497-0.19-0.497-1.135,0-1.325l2.352-0.902
		c4.496-1.724,8.011-6.44,9.296-12.474l0.672-3.155c0.142-0.667,0.846-0.667,0.988,0l0.672,3.155
		c1.285,6.033,4.799,10.75,9.296,12.474l2.352,0.902c0.497,0.19,0.497,1.135,0,1.325l-2.352,0.901
		c-4.496,1.724-8.011,6.44-9.296,12.474l-0.672,3.156c-0.142,0.667-0.846,0.667-0.988,0l-0.672-3.156
		C323.702,141.096,320.187,136.379,315.691,134.656z"/>
	<path style="fill:#FFFFFF;" d="M263.415,94.013l-1.419-0.544c-0.3-0.115-0.3-0.685,0-0.799l1.419-0.544
		c2.712-1.04,4.832-3.885,5.607-7.524l0.405-1.903c0.086-0.402,0.51-0.402,0.596,0l0.405,1.903c0.775,3.639,2.895,6.484,5.608,7.524
		l1.418,0.544c0.3,0.115,0.3,0.685,0,0.799l-1.418,0.544c-2.712,1.04-4.833,3.885-5.607,7.524l-0.405,1.903
		c-0.086,0.402-0.51,0.402-0.596,0l-0.405-1.903C268.247,97.898,266.127,95.053,263.415,94.013z"/>
	<path style="fill:#FFFFFF;" d="M112.854,167.584l-2.052-0.786c-0.433-0.166-0.433-0.99,0-1.156l2.051-0.786
		c3.923-1.504,6.989-5.618,8.11-10.882l0.586-2.753c0.124-0.581,0.738-0.581,0.862,0l0.586,2.753
		c1.121,5.263,4.187,9.378,8.11,10.882l2.052,0.786c0.433,0.166,0.433,0.99,0,1.156l-2.051,0.786
		c-3.923,1.504-6.989,5.618-8.11,10.882l-0.586,2.753c-0.124,0.581-0.738,0.581-0.862,0l-0.586-2.753
		C119.843,173.202,116.777,169.088,112.854,167.584z"/>
	<path style="fill:#FFFFFF;" d="M116.75,224.474l-1.176-0.451c-0.248-0.095-0.248-0.568,0-0.663l1.176-0.451
		c2.248-0.862,4.006-3.22,4.648-6.237l0.336-1.578c0.071-0.333,0.423-0.333,0.494,0l0.336,1.578c0.642,3.017,2.4,5.375,4.648,6.237
		l1.176,0.451c0.248,0.095,0.248,0.568,0,0.663l-1.176,0.451c-2.248,0.862-4.006,3.22-4.648,6.237l-0.336,1.578
		c-0.071,0.333-0.423,0.333-0.494,0l-0.336-1.578C120.755,227.694,118.998,225.336,116.75,224.474z"/>
	<path style="fill:#E6E6E6;" d="M287.711,420.082c67.953,0,123.04,6.697,123.04,14.959S355.664,450,287.711,450
		c-67.953,0-123.04-6.697-123.04-14.959S219.758,420.082,287.711,420.082z"/>
	<g>
		<g>
			<path style="fill:#F3F06C;" d="M328.016,218.456c0.917,4.305,1.608,8.652,2.063,13.028c-6.388,2.447-11.887,7.263-15.397,13.216
				c-2.694,4.467-4.089,9.674-4.19,14.897c-1.239-0.04-2.525,0.67-3.435,1.419c-2.765,2.432-3.576,6.391-3.849,9.912
				c-0.51,9.289,4.495,19.958,13.086,23.947c-0.176,0.279-0.355,0.558-0.535,0.835c-0.073,0.099-0.14,0.201-0.201,0.307
				c-1.869,2.805-3.899,5.499-6.086,8.064c-2.165,2.5-4.472,4.874-6.921,7.097c-1.652,1.48-3.363,2.894-5.133,4.23
				c-1,0.756-1.433,2.012-1.275,3.199c-0.142,0.311-0.273,0.627-0.4,0.935c-0.682,1.531-1.381,3.054-2.126,4.557
				c-2.039,3.96-4.61,8.033-8.705,10.101c-3.868,2.046-7.706,1.732-11.346,0.352c-2.386-2.422-4.922-4.693-7.663-6.714
				c-1.906-1.394-3.831-2.806-5.928-3.9c-0.46-0.424-1.29-0.233-1.515,0.382c-0.301,0.899,0.706,1.207,1.082,1.85
				c12.212,15.338,24.31,30.785,34.77,47.402c1.925,2.969,3.793,5.975,5.592,9.023c0.24,0.381,0.465,0.798,0.695,1.218
				c-2.938,1.461-5.665,3.407-8.012,5.616c-3.918-7.353-8.828-14.156-13.636-20.945c-0.006-0.009-0.013-0.018-0.02-0.027
				c-6.434-8.765-13.278-17.331-20.317-25.63c-6.525-7.355-12.822-15.611-21.854-19.984c-0.245-0.353-0.831-0.409-1.139-0.072
				c-0.298,0.328-0.207,0.841,0.12,1.078c0.283,0.514,0.526,1.047,0.77,1.58c-2.833-0.627-5.624-1.418-8.371-2.359
				c-3.339-1.175-6.594-2.566-9.763-4.141c-3.524-1.79-6.93-3.798-10.212-6.001c-3.689-2.512-7.212-5.26-10.568-8.202
				c-3.669-3.258-7.128-6.744-10.381-10.418c-3.611-4.129-6.954-8.481-10.038-13.017c-2.181-3.25-4.222-6.588-6.127-10.004
				c0.657-0.053,1.314-0.118,1.969-0.199c5.983-0.922,3.06-2.812-0.572-4.234c-9.847-3.319-20.573-1.301-30.394,1.162
				c-6.623,1.773-13.782,4.8-15.631,12.098c-0.683,2.681,0.025,8.11,2.314,10.761c-1.613,0.705-3.319,1.164-5.082,1.143
				c-1.109-0.061-2.189-0.338-3.266-0.608c-0.089-0.179-0.176-0.357-0.253-0.539c-1.042-2.176-1.941-4.419-2.533-6.761
				c-2.222-9.699,3.317-17.264,11.646-21.628c8.39-4.583,17.878-6.283,27.292-7.2c0.361-0.023,0.719-0.063,1.076-0.113
				c0.88,0.009,1.759,0.019,2.638,0.027c2.375-0.064,9.33,0.807,10.502-1.629c0.645-2.24-5.005-3.939-6.688-4.174
				c-0.994-0.166-1.997-0.302-3.006-0.404c-0.013-0.035-0.024-0.068-0.036-0.102c-2.001-5.83-3.633-11.776-4.883-17.811
				c-1.205-5.988-2.023-12.045-2.445-18.137c-0.338-5.277-0.391-10.57-0.057-15.849c0.329-4.595,0.922-9.169,1.831-13.687
				c0.848-4.053,1.939-8.05,3.284-11.965c1.176-3.337,2.55-6.595,4.124-9.763c1.39-2.74,2.938-5.391,4.648-7.946
				c1.68-2.464,3.501-4.824,5.461-7.074c2.352-2.654,4.884-5.13,7.534-7.488c2.103-1.835,4.28-3.587,6.463-5.323
				c0.52-0.414,1.047-0.818,1.57-1.229c0.572-0.452,1.179-0.862,1.763-1.299c0.379-0.283,0.749-0.58,1.101-0.898
				c0.217-0.196,0.389-0.423,0.576-0.637c0.006-0.006,0.012-0.012,0.018-0.018c0.009-0.007,0.018-0.015,0.027-0.022
				c0.038-0.025,0.076-0.048,0.115-0.069c0.086-0.041,0.173-0.083,0.26-0.119c0.255-0.104,0.089-0.498-0.167-0.394
				c-0.091,0.038-0.184,0.071-0.277,0.104c-0.036,0.011-0.071,0.02-0.107,0.028c-0.019,0.003-0.038,0.005-0.058,0.007h-0.005
				c-0.004,0-0.007,0-0.011-0.001h-0.008c-0.235-0.016-0.468-0.041-0.705-0.026c-0.399,0.026-0.789,0.093-1.181,0.173
				c-0.897,0.184-1.78,0.452-2.64,0.739c1.514-3.373,2.575-6.989,4.962-9.863c3.042-3.235,7.899-4.035,12.163-3.862
				c4.14,0.135,8.026,2.059,11.909,3.7c-0.499,0.09-0.997,0.185-1.494,0.286c-1.637,0.333-3.267,0.743-4.863,1.234
				c-0.857,0.265-1.72,0.508-2.578,0.77c-0.427,0.131-0.847,0.311-1.281,0.421c-0.004,0-0.006,0.001-0.009,0.002
				c-0.012-0.002-0.023-0.003-0.03-0.004c-0.398-0.059-0.793,0.28-0.728,0.719c0.071,0.474,0.654,0.69,1.011,0.418
				c0.063-0.011,0.126-0.017,0.189-0.023c0.601-0.045,1.201-0.097,1.8-0.146c1.957-0.136,3.92-0.147,5.882-0.15
				c1.794-0.002,3.588,0.023,5.379,0.114c5.945,0.37,11.866,1.064,17.721,2.159c4.743,0.923,9.425,2.111,14.014,3.62
				c4.277,1.443,8.452,3.149,12.519,5.106c4.174,2.048,8.219,4.348,12.11,6.894c4.055,2.686,7.935,5.614,11.638,8.766
				c3.903,3.37,7.592,6.975,11.055,10.795c3.516,3.926,6.783,8.062,9.802,12.381c3.092,4.488,5.904,9.159,8.424,13.992
				c2.499,4.872,4.699,9.889,6.579,15.033C325.297,207.749,326.831,213.06,328.016,218.456z"/>
			<path style="fill:#F3F06C;" d="M365.272,220.839c6.121,2.849,10.493,7.598,11.349,14.463c-4.43-3.837-10.163-6.031-16.127-5.172
				c-0.434,0.082-0.871,0.181-1.305,0.302c-0.152-0.715-0.409-1.408-0.789-2.056c-3.033-5.213-12.844-7.226-18.487-7.174
				c-0.138,0.005-0.276,0.01-0.414,0.016c-1.429-1.236-2.42-2.906-2.514-4.857c-0.042-0.467-0.062-0.935-0.063-1.403
				c1.552,0.075,3.109,0.12,4.635,0.316c4.446,0.434,8.859,1.174,13.205,2.207C358.45,218.38,361.688,219.244,365.272,220.839z"/>
			<path style="fill:#F3F06C;" d="M262.602,362.648c0.304,0.703,0.365,1.583,0.463,2.445c-3.849,1.765-7.827,3.25-11.864,4.518
				c-8.242,2.455-16.826,3.562-25.41,3.787c-1.463,0.108-3.593-0.022-5.469,0.179c-1.183-1.249-2.167-2.668-2.812-4.326
				c-0.413-0.988-0.611-2.035-0.685-3.099c0.381,0.118,0.783,0.195,1.198,0.223c8.836-0.005,17.703-1.115,26.114-3.887
				c4.503-1.484,9.388-2.889,13.378-5.556C259.452,358.625,261.374,360.349,262.602,362.648z"/>
			<path style="fill:#F3F06C;" d="M284.162,341.943c-0.315,1.383-0.574,2.74-0.866,3.88c-0.859-1.093-1.73-2.176-2.614-3.25
				C281.863,342.472,283.027,342.258,284.162,341.943z"/>
			<path style="fill:#A4E873;" d="M227.548,379.702c2.239,0.092,4.476,0.072,6.707-0.052c-1.626,2.756-3.85,4.847-7.122,5.814
				c-6.458,2.017-13.84,0.113-18.59-4.68c-4.528-4.425-6.372-10.823-6.537-17.016c0.038-3.56,1.359-7.372,4.062-9.775
				c3.555-2.845,8.807-2.578,12.727-0.634c2.497,1.397,4.336,3.584,6.1,5.8c-1.185,0.091-2.373,0.156-3.56,0.196
				c-1.571,0.152-3.321-0.21-4.799,0.379c-0.457-0.832-1.226-1.462-2.28-1.624c-4.717-0.482-4.571,5.802-4.247,9.048
				c0.706,6.707,6.265,12.948,13.103,13.63c1.212,0.143,2.406-0.123,3.59-0.25C227.186,380.435,227.46,380.092,227.548,379.702z"/>
			<path style="fill:#A4E873;" d="M261.335,413.689c1.712,3.411,2.459,7.363,1.928,11.155c-0.592,3.318-3.521,5.392-6.559,6.348
				c-5.345,1.699-11.025,1.764-16.585,1.882c-12.071,0.193-34.588-0.384-43.97-8.297c-5.359-4.751-8.073-11.683-9.934-18.44
				c-2.935-10.553-3.274-22.016,0.167-32.49c2.214-6.3,4.355-9.541,8.836-12.888c-0.013,0.083-0.025,0.164-0.036,0.247
				c-0.426,5.047,0.396,10.249,2.206,14.975c3.834,9.664,12.395,16.309,22.847,16.996c3.336,0.2,6.809-0.265,9.957-1.488
				c0.293,0.587,0.646,1.146,1.022,1.671c-3.003,0.305-5.97,0.887-8.824,1.715c-6.23,1.946-12.814,4.501-17.036,9.71
				c-0.939,1.132-1.418,2.548-1.604,3.971c-0.043,1.051,1.531,1.392,1.926,0.424c9.905-5.759,21.234-9.833,32.833-9.104
				C247.648,400.619,257.196,405.131,261.335,413.689z"/>
			<path style="fill:#A4E873;" d="M385.388,377.578c1.007,0.929,1.986,2.027,2.893,3.238c-2.692-1.711-5.842-2.667-9.066-2.487
				c-15.176,0.738-24.945,14.266-33.306,25.381c-4.476,5.793-9.423,11.228-14.994,15.988c-8.418,7.631-19.341,13.997-30.979,13.763
				c-3.611-0.411-7.206-1.079-10.45-2.795c-7.188-3.697-8.223-10.404-3.113-16.462c2.088-2.356,4.803-4.131,7.781-5.142
				c1.744-0.526,3.539-0.846,5.315-1.239c3.472-0.743,6.872-1.79,10.153-3.153c4.182-1.256,8.07-3.369,11.628-5.876
				c8.798-6.269,16.231-14.383,25.585-19.882c3.745-2.114,7.796-3.604,11.859-4.979C368.144,370.868,377.63,370.487,385.388,377.578
				z"/>
			<path style="fill:#A4E873;" d="M309.079,388.24c3.783-0.88,7.927,0.324,10.649,3.069c-3.792,2.937-7.797,5.58-12.182,7.586
				l-0.398,0.191c-0.438,0.178-1.347,0.779-2.039,0.834c-4.806,0.82-9.108,1.256-13.135,2.571c0.584-1.576,1.357-3.075,2.292-4.473
				C297.709,393.056,303.189,389.515,309.079,388.24z"/>
			<path style="fill:#A4E873;" d="M184.832,111.794c1.813,1.793,2.317,3.319,2.191,5.281c-0.598,0.685-1.124,1.414-1.595,2.176
				c-0.507-0.529-1.153-0.952-1.75-1.346c-4.297-2.346-8.905-4.074-13.612-5.4c-14.464-4.227-29.509-6.24-44.576-5.599
				c-1.791,0.015-3.581,0.05-5.37,0.139c-0.453,0.072-1.49-0.039-1.524,0.608c0.089,0.604,0.85,0.54,1.321,0.632
				c0.509,0.067,1.018,0.129,1.525,0.199c1.032,0.142,2.064,0.286,3.096,0.423c10.99,1.746,21.981,3.652,32.73,6.563
				c6.257,1.618,12.53,3.271,18.523,5.718c2.431,0.858,4.759,2.073,7.302,2.556c0.06,0.012,0.119,0.022,0.179,0.029
				c-0.491,1.294-0.923,2.616-1.355,3.926c-1.483,1.494-3.207,2.749-5.064,3.681c-4.352,1.785-8.935,3.264-13.64,3.694
				c-12.807,0.714-25.951-2.836-36.119-10.782c-5.861-4.858-11.554-10.541-14.828-17.497c17.105-10.082,38.804-13.167,57.356-5.259
				C175.299,103.899,180.714,107.168,184.832,111.794z"/>
			<path style="fill:#7A5B52;" d="M194.83,111.8c-0.93,0.366-1.836,0.792-2.708,1.276c-0.775-4.936-6.654-10.303-10.314-12.784
				c-0.036-0.127-0.064-0.241-0.081-0.34c-1.879-6.606-4.597-14.959-3.069-21.795c1.011,0.913,2.565,1.442,3.773,1.68
				c2.869,0.536,5.766-0.59,8.27-1.911c0.353-0.215,0.988-0.547,1.704-0.953c-0.746,1.36-1.485,2.724-1.898,4.225
				c-1.003,4.827-0.023,9.816,0.489,14.654C191.715,101.141,191.988,107.163,194.83,111.8z"/>
			<path style="fill:#7A5B52;" d="M194.122,72.986c-0.916,0.573-1.868,1.562-2.338,1.948c-1.639,1.389-3.42,2.74-5.562,3.199
				c-2.272,0.559-4.879-0.037-6.503-1.707C182.705,73.954,191.11,73.345,194.122,72.986z"/>
			<path style="fill:#FFFFFF;" d="M371.718,240.193c4.743,3.868,7.615,10.346,6.112,16.426c-0.086,0.381-0.232,0.773-0.402,1.172
				c-3.995-7.987-10.227-15.482-17.678-20.725c0.534-0.154,1.077-0.271,1.638-0.303
				C365.118,236.457,368.815,237.909,371.718,240.193z"/>
			<path style="fill:#FFFFFF;" d="M373.145,265.399c1.193,3.435,2.45,7.118,1.825,10.791c-0.281,2.434-1.769,4.288-3.271,5.834
				c-0.146-0.522-0.329-1.027-0.554-1.505c1.265-1.067,2.57-2.846,1.513-4.472c-1.488-2.248-4.628-0.871-6.215,0.574
				c-1.662,1.394-3.096,3.235-3.523,5.403c-0.046,0.799-0.642,2.483,0.447,2.758c0.276,0.035,0.492-0.143,0.707-0.277
				c0.587-0.396,1.234-0.685,1.86-1.013c0.058,0.327,0.099,0.652,0.099,0.976c0.344,2.937-1.393,4.949-4.055,5.897
				c-4.425,1.582-9.825,0.335-12.593-3.599c-2.882-4.16-1.593-9.693,1.107-13.606c0.993-1.524,2.087-2.966,3.24-4.373
				c0.882-1.076,1.858-2.103,2.418-3.391c0.2-2.372-3.342-2.173-4.754-1.364c-6.382,3.382-10.742,10.571-10.594,17.815
				c-3.565-0.625-7.326-2.04-9.009-5.484c-3.742-7.367,1.859-17.575,7.331-22.684c0.665-0.595,1.353-1.189,2.137-1.622
				c0.949-0.556,0.125-2.058-0.851-1.586c-2.706,1.169-5.488,2.199-7.869,3.989c-3.511,2.35-6.363,5.203-7.719,9.301
				c-1.152,3.267-1.464,6.672-1.007,9.851c-1.419-0.777-2.682-1.808-3.628-3.144c-3.39-5.108-3.298-11.863-1.61-17.569
				c3.673-11.112,15.336-19.037,27.001-15.227c7.22,2.188,13.265,7.032,18.34,12.483
				C368.001,254.541,371.046,259.803,373.145,265.399z"/>
			<path style="fill:#FFFFFF;" d="M328.374,283.685c1.519,3.729-2.723,6.086-5.969,5.774c-2.192-0.18-4.237-1.253-5.904-2.65
				c-4.627-4.217-7.014-10.794-6.442-17.003c0.142-1.386,0.422-2.769,0.913-4.076c0.126,0.703,0.277,1.401,0.451,2.092
				c1.402,5.148,4.76,10.326,9.984,12.151c1.403,0.341,2.903,0.84,4.395,1.058C326.77,281.815,327.695,282.637,328.374,283.685z"/>
			<path style="fill:#FFFFFF;" d="M166.909,304.484c4.049,4.604,8.089,12.679,3.33,18.07c-0.714,0.642-1.484,1.218-2.247,1.8
				c-0.126-3.004-1.036-6.013-2.85-8.658c-0.64-1.132-1.651-1.972-2.428-2.973c-0.699-0.8-1.946,0.078-1.526,0.987
				c0.056,2.809,0.844,5.556,0.773,8.38c-0.082,3.57-0.92,7.353-3.451,10.011c-1.954,1.858-4.668,2.704-7.326,2.839
				c0.399-3.356-0.099-7.165-2.611-9.476c-0.591-0.219-0.993,0.409-0.944,0.938c-1.492,7.318-2.594,12.285-10.576,14.538
				c-4.837,1.305-10.722-0.386-13.491-4.712c-0.641-1.207-0.685-2.61-0.598-3.961c1.505,1.437,3.391,2.441,5.532,2.716
				c0.942,0.122,3.568-0.006,2.896-1.512c-0.445-0.505-1.138-0.725-1.587-1.242c-2.326-2.293-3.879-5.218-5.124-8.206
				c-0.256-0.807-0.717-1.496-1.269-2.131c-0.176-0.674-0.53-1.339-1.195-1.637c-1.487-0.793-3.329,0.628-2.984,2.265
				c-0.061,0.699-0.053,1.406,0.02,2.109c-3.67-1.346-5.463-4.701-6.568-8.551c-0.593-2.088-0.175-4.229-0.046-6.352
				c0.766,0.294,1.564,0.532,2.39,0.708c11.626,3.018,25.196-3.04,30.779-13.654c0.656-1.361,1.166-2.825,1.463-4.326
				c2.152,0.747,4.334,1.406,6.451,2.246C158.789,296.899,163.272,300.342,166.909,304.484z"/>
			<path style="fill:#FFFFFF;" d="M136.843,282.535c6.587,5.098,4.342,12.88-1.654,17.341c-5.777,4.254-13.754,5.902-20.532,3.206
				c-2.857-1.334-5.058-4.132-5.571-7.253c-0.246-2.765,1.402-5.113,2.996-7.212c0.397,0.924,0.861,1.82,1.392,2.681
				c0.334,0.523,0.695,1.052,1.088,1.557c-0.286,0.853-0.173,1.839,0.504,2.621c0.656,1.147,1.917,1.667,3.061,2.204
				c1.355,0.635,2.802,1.038,4.297,1.158c3.812,0.321,7.806-1.034,10.399-3.893c1.213-1.402,2.038-3.083,2.594-4.841
				c0.223-0.882,0.672-2.327-0.049-3.058c-0.453-0.306-0.903,0.074-1.285,0.405c-0.29-1.444-0.836-2.918-0.939-4.244
				c-0.086-0.978,0.11-1.853,0.501-2.632C134.743,281.175,135.839,281.789,136.843,282.535z"/>
			<path style="fill:#F0D937;" d="M272.127,343.024c-3.18-2.367-5.94-5.235-9.083-7.65c-0.996-0.8-1.994-1.591-3.034-2.331
				c-1.508-0.981-3.142-1.727-4.82-2.365c-2.41-0.792-5.169-1.109-7.482,0.134c-3.267-3.163-6.823-5.971-10.949-7.968
				c-0.245-0.353-0.831-0.409-1.139-0.072c-0.298,0.328-0.207,0.841,0.12,1.078c0.283,0.514,0.526,1.047,0.77,1.58
				c-10.168-2.217-19.738-6.702-28.346-12.501c-4.566-2.926-8.435-6.579-12.197-10.457c-4.798-4.893-9.681-9.711-14.221-14.847
				c-3.971-5.164-7.528-10.647-10.695-16.336c5.878-0.386,7.725-2.019,1.397-4.434c-6.617-2.23-13.63-2.051-20.499-0.946
				c0.99-1.653,2.774-2.542,4.368-3.514c2.059-1.202,4.002-2.61,5.678-4.31c-0.46-1.097-1.269-1.98-2.009-2.892
				c3.078-0.058,9.513,0.8,10.771-1.626c0.544-3.036-7.48-4.478-9.694-4.579c-0.013-0.035-0.024-0.068-0.036-0.103
				c-0.739-2.153-1.428-4.322-2.065-6.505c0.105-0.07,0.211-0.136,0.32-0.2c0.144-0.084,0.295-0.167,0.451-0.244
				c-0.131-0.261-0.262-0.522-0.393-0.783c0.129,0.258,0.258,0.515,0.387,0.773c-0.673-1.338-1.348-2.676-1.997-4.027
				c-0.583-2.261-1.112-4.537-1.586-6.825c-3.942-19.676-4.055-40.534,2.613-59.637c6.123-17.84,16.877-29.483,31.902-40.381
				c0.023,0.119,0.044,0.239,0.06,0.36c0.008,0.058,0.015,0.116,0.021,0.174c0.405-0.459,0.811-0.917,1.226-1.366
				c-0.09-0.029-0.181-0.059-0.272-0.089c0.196-0.254,0.405-0.487,0.722-0.582c0.255-0.104,0.089-0.498-0.167-0.394
				c-0.125,0.049-0.252,0.103-0.384,0.132c-1.575-0.117-3.127,0.425-4.607,0.892c1.514-3.372,2.575-6.989,4.962-9.863
				c1.019-1.084,2.242-1.894,3.578-2.486c0.151,0.885,0.039,1.772-0.147,2.66c2.952,0.789,6.093,0.199,9.054-0.286
				c0.158-0.019,0.295-0.085,0.429-0.166c1.641-0.9,3.321-1.751,5.088-2.373c2.047,0.714,4.059,1.639,6.069,2.489
				c-3.494,0.581-6.887,1.665-10.254,2.709c-0.398-0.059-0.794,0.28-0.728,0.719c0.071,0.474,0.654,0.69,1.011,0.418
				c5.542-0.498,11.138-0.414,16.681,0.046c-2.979,2.378-6.397,4.107-9.634,6.09c-3.949,2.435-7.789,5.147-10.946,8.573
				c-10.718,13.338-14.702,34.227-15.943,50.974c-0.946,17.413,2.48,34.933,9.621,50.825c8.616,20.027,21.489,38.794,39.557,51.37
				c5.288,3.441,11.022,6.202,16.942,8.372c13.822,4.659,28.484,5.792,42.981,5.921c4.168-0.279,8.355-0.767,12.544-0.574
				c-1.767,1.945-3.624,3.808-5.571,5.575c-1.652,1.48-3.362,2.894-5.133,4.23c-1,0.756-1.433,2.012-1.275,3.199
				c-0.142,0.311-0.273,0.627-0.4,0.935c-0.047,0.105-0.093,0.209-0.14,0.313c-3.179,0.644-6.381,1.267-9.484,2.217
				c-2.581,1.022-5.244,2.133-7.196,4.173c-0.163,0.748-0.287,1.516-0.281,2.284c0.182,1.494,0.769,2.896,1.354,4.272
				c0.219,0.509,0.417,1.026,0.625,1.539c0.287,0.363,0.575,0.723,0.85,1.094c-2.694,0.531-5.35,0.088-7.907-0.882
				c-2.386-2.422-4.922-4.693-7.663-6.714c-1.906-1.394-3.831-2.806-5.928-3.9c-0.46-0.424-1.29-0.233-1.515,0.382
				c-0.301,0.899,0.706,1.207,1.082,1.85c4.695,5.897,9.374,11.811,13.948,17.8C273.023,343.673,272.573,343.349,272.127,343.024z
				 M266.242,319.44c0.044-0.091,0.088-0.181,0.134-0.271c-0.235-0.029-0.47-0.06-0.704-0.092
				C265.863,319.196,266.053,319.317,266.242,319.44z"/>
			<path style="fill:#F0D937;" d="M278.95,368.484c-0.006-0.009-0.013-0.018-0.02-0.027c-0.58-0.79-1.163-1.578-1.749-2.364
				c5.591,3.003,11.479,5.405,17.344,7.81c1.85,2.861,3.646,5.757,5.377,8.692c0.24,0.381,0.465,0.798,0.695,1.218
				c-2.938,1.461-5.665,3.407-8.012,5.616C288.668,382.077,283.758,375.273,278.95,368.484z"/>
			<path style="fill:#F0D937;" d="M254.144,368.58c-3.538-1.312-6.603-3.732-9.305-6.321c4.304-1.403,8.893-2.798,12.677-5.327
				c1.936,1.692,3.859,3.416,5.086,5.716c0.304,0.703,0.365,1.583,0.463,2.445c-2.897,1.328-5.866,2.497-8.878,3.535
				C254.173,368.613,254.158,368.596,254.144,368.58z"/>
			<path style="fill:#F0D937;" d="M280.681,342.573c1.182-0.101,2.346-0.315,3.481-0.629c-0.315,1.383-0.574,2.74-0.866,3.879
				C282.438,344.73,281.566,343.647,280.681,342.573z"/>
			<path style="fill:#F0D937;" d="M217.511,369.251c-0.413-0.988-0.611-2.035-0.685-3.099c0.381,0.118,0.783,0.195,1.198,0.223
				c2.183-0.001,4.368-0.07,6.548-0.215c-0.27,1.382-0.636,2.734-0.948,4.105c-0.222,1.167-0.637,2.345-1.486,3.202
				c-0.611,0.015-1.225,0.046-1.815,0.109C219.141,372.328,218.157,370.909,217.511,369.251z"/>
			<path style="fill:#F0D937;" d="M360.493,230.13c-0.434,0.082-0.871,0.181-1.305,0.302c-1.808-7.241-13.302-9.261-19.69-9.214
				c-1.429-1.236-2.42-2.906-2.514-4.857c-0.042-0.467-0.062-0.935-0.063-1.403c1.553,0.075,3.11,0.12,4.635,0.316
				c2.629,0.257,5.246,0.621,7.845,1.089c1.438,3.526,3.468,6.946,6.561,9.257c2.448,1.572,5.21,2.628,8.071,3.147
				c-0.256-0.053-0.511-0.105-0.766-0.157c3.735,0.656,7.538,0.775,11.309,0.377c1.046,1.863,1.752,3.966,2.045,6.316
				C372.19,231.465,366.457,229.271,360.493,230.13z"/>
			<path style="fill:#F0D937;" d="M123.655,292.019c-1.109-0.061-2.189-0.338-3.266-0.608c-3.057-5.89-4.642-12.771-1.689-18.659
				c0.922,1.371,1.839,2.749,2.694,4.164c1.465,1.534,3.147,2.835,4.867,4.07c-0.365,2.857,0.414,7.501,2.476,9.89
				C127.124,291.581,125.416,292.04,123.655,292.019z"/>
			<path style="fill:#CCB722;" d="M180.519,160.232c0.211-4.973,7.316-4.971,7.526,0
				C187.834,165.206,180.728,165.205,180.519,160.232z"/>
			<path style="fill:#CCB722;" d="M171.208,174.423c0.166-3.93,5.781-3.929,5.947,0
				C176.989,178.353,171.374,178.352,171.208,174.423z"/>
			<path style="fill:#CCB722;" d="M188.247,175.603c0.208-4.921,7.238-4.919,7.446,0
				C195.485,180.524,188.454,180.523,188.247,175.603z"/>
			<path style="fill:#CCB722;" d="M242.322,292.626c-1.988-1.479-2.004-4.65-0.01-6.132c1.967-1.558,4.977-0.738,5.932,1.568
				C249.77,291.703,245.457,295.019,242.322,292.626z"/>
			<path style="fill:#CCB722;" d="M223.172,298.408c0.162-3.825,5.626-3.824,5.787,0
				C228.797,302.233,223.333,302.232,223.172,298.408z"/>
			<path style="fill:#CCB722;" d="M239.866,307.204c0.205-4.849,7.133-4.849,7.337,0
				C246.998,312.054,240.07,312.052,239.866,307.204z"/>
			<path style="fill:#FFFDA3;" d="M303.957,196.106c-1.152-1.715-2.285-3.46-3.656-5.011c-1.118-1.045-2.534-1.804-3.69-2.857
				c-2.939-2.583-5.582-5.492-8.689-7.891c-2.066-1.617-4.242-3.081-6.282-4.732c-3.242-2.616-6.332-5.414-9.557-8.052
				c-7.701-6.174-15.944-11.612-24.164-17.058c-1.899-1.278-3.749-2.601-5.5-4.076c-1.33-1.195-2.746-2.357-3.674-3.91
				c-0.543-0.955-1.114-2.025-1.032-3.166c0.401-2.792,3.957-4.178,6.468-4.091c7.226,0.04,13.825,3.557,19.904,7.138
				c7.066,4.195,13.704,9.095,19.911,14.474c4.027,3.718,8.013,7.615,10.952,12.276c1.297,2.082,2.59,4.164,3.946,6.208
				c1.901,2.816,3.965,5.566,5.29,8.716c0.435,0.977,0.689,2.021,1.167,2.978c1.171,1.971,2.593,3.782,3.831,5.711
				C311.231,196.286,306.379,199.477,303.957,196.106z"/>
			<path style="fill:#FFFDA3;" d="M310.473,216.482c-3.082-1.445-4.214-5.577-2.643-8.497c1.246-2.553,4.573-3.8,7.2-2.743
				c2.65,0.977,4.394,3.69,4.099,6.508C318.727,215.964,314.244,218.43,310.473,216.482z"/>
			<path style="fill:#6BA845;" d="M148.195,133.938c-3.445-1.026-6.863-2.131-10.276-3.253
				c-10.75-4.765-20.295-13.379-25.653-23.893c1.665-0.982,3.375-1.897,5.12-2.743c1.291,0.329,2.582,0.662,3.874,0.989
				c2.322,0.587,4.643,1.178,6.962,1.779c-2.7,0.098-5.404,0.095-8.103,0.226c-0.453,0.072-1.49-0.039-1.524,0.608
				c0.089,0.604,0.85,0.54,1.321,0.632c0.509,0.067,1.017,0.129,1.525,0.198c18.395,2.716,36.891,6.164,54.349,12.703
				c2.488,0.874,4.868,2.137,7.48,2.585c-0.491,1.294-0.923,2.616-1.355,3.926c-1.483,1.494-3.207,2.749-5.064,3.681
				C167.329,135.581,158.316,136.067,148.195,133.938z"/>
			<path style="fill:#BC8D7F;" d="M179.958,93.668c-1.353-5.165-2.373-10.712-1.3-15.511c1.011,0.913,2.564,1.442,3.773,1.68
				c0.285,0.053,0.569,0.09,0.854,0.112c2.055,2.63,3.231,6.411,2.39,9.71C185.053,92.234,182.76,94.508,179.958,93.668z"/>
			<path style="fill:#E0D5D5;" d="M109.086,295.828c-0.246-2.765,1.402-5.113,2.996-7.212c0.397,0.924,0.861,1.82,1.392,2.682
				c0.334,0.523,0.695,1.052,1.088,1.557c-0.286,0.853-0.173,1.839,0.504,2.621c0.523,0.916,1.433,1.432,2.361,1.876
				c-0.202,0.258-0.403,0.518-0.606,0.777c-0.531,0.683-1.092,1.351-1.787,1.876c-0.662,0.498-1.4,0.906-2.204,1.127
				c-0.26,0.071-0.523,0.124-0.788,0.157C110.513,299.834,109.427,297.902,109.086,295.828z"/>
			<path style="fill:#E0D5D5;" d="M136.28,290.595c-0.341-0.005-0.681-0.009-1.021-0.012c0.301-1.021,0.913-2.639,0.11-3.537
				c-0.453-0.307-0.903,0.073-1.285,0.404c-0.29-1.444-0.836-2.918-0.939-4.244c-0.086-0.978,0.11-1.853,0.501-2.632
				c1.097,0.601,2.194,1.215,3.198,1.961c2.995,2.318,4.164,5.191,3.985,8.055C139.313,290.65,137.795,290.615,136.28,290.595z"/>
			<path style="fill:#E0D5D5;" d="M123.562,336.226c-0.641-1.207-0.686-2.61-0.599-3.961c1.504,1.437,3.391,2.441,5.532,2.716
				c0.942,0.122,3.568-0.006,2.896-1.512c-3.262-2.238-5.209-5.865-6.712-9.448c-0.256-0.807-0.717-1.496-1.269-2.131
				c-0.176-0.674-0.53-1.339-1.195-1.637c-1.487-0.793-3.329,0.628-2.984,2.265c-0.061,0.699-0.053,1.406,0.02,2.109
				c-3.67-1.346-5.463-4.701-6.568-8.551c-0.593-2.089-0.175-4.229-0.046-6.352c13.328,4.937,31.244-3.051,34.632-17.272
				c2.152,0.747,4.334,1.406,6.451,2.246c1.157,0.502,2.284,1.069,3.377,1.695c-4.409,3.275-8.878,6.469-13.429,9.543
				c0.207-0.14,0.413-0.278,0.619-0.418c-4.231,2.938-8.669,5.553-13.049,8.256c-1.176,0.749-2.34,1.517-3.501,2.288
				c-0.48,0.362-0.986,0.693-1.405,1.125c-0.367,0.475-0.668,1.008-0.911,1.556c2.077,3.692,4.064,7.552,7.2,10.476
				c1.072,0.898,2.312,1.553,3.536,2.214c2.855,1.36,5.828,2.617,8.362,4.54C140.256,342.566,128.257,343.536,123.562,336.226z"/>
			<path style="fill:#E0D5D5;" d="M149.318,326.262c-0.262-1.129,0.893-2.136,1.946-1.722c1.011,0.015,1.998,0.288,2.929,0.689
				c2.358,1.094,4.139,3.191,5.529,5.327c-0.352,0.546-0.755,1.064-1.212,1.544c-1.954,1.858-4.668,2.704-7.326,2.839
				C151.539,331.946,151.182,328.592,149.318,326.262z"/>
			<path style="fill:#E0D5D5;" d="M165.141,315.695c-0.423-0.748-1.009-1.369-1.581-1.993c-0.016-1.016-0.191-2.491,1.093-2.799
				c2.676-0.47,5.344,0.907,7.31,2.64c0.821,3.167,0.578,6.404-1.724,9.011c-0.714,0.642-1.484,1.218-2.247,1.8
				C167.865,321.349,166.955,318.34,165.141,315.695z"/>
			<path style="fill:#E0D5D5;" d="M370.888,247.614c0.749-2.289,2.904-3.242,5.128-2.338c1.952,3.422,2.774,7.463,1.816,11.342
				c-0.086,0.381-0.232,0.773-0.402,1.172C375.659,254.251,373.448,250.807,370.888,247.614z"/>
			<path style="fill:#E0D5D5;" d="M352.916,289.809c0.177-2.908,0.883-5.765,1.761-8.534c1.54-4.832,3.72-9.917,8.041-12.883
				c2.188-1.569,5.264-2.592,7.83-1.367c-0.001,0.001-0.002,0.002-0.003,0.003c0.003,0.001,0.005,0.002,0.008,0.003
				c0.404-0.331,0.851-0.611,1.29-0.89c0.415-0.263,0.865-0.49,1.324-0.681c1.187,3.418,2.425,7.078,1.804,10.73
				c-0.281,2.434-1.769,4.288-3.271,5.834c-0.146-0.521-0.329-1.027-0.554-1.505c1.265-1.067,2.57-2.846,1.513-4.472
				c-1.488-2.248-4.629-0.871-6.216,0.574c-1.662,1.394-3.096,3.235-3.523,5.403c-0.046,0.799-0.642,2.483,0.447,2.758
				c0.276,0.035,0.492-0.143,0.707-0.277c0.587-0.396,1.234-0.685,1.86-1.013C367.531,290.761,357.851,292.537,352.916,289.809z"/>
			<path style="fill:#E0D5D5;" d="M332.589,277.659c1.393-5.465,5.303-13.079,10.356-15.891c1.576-0.799,3.335-1.413,5.125-1.201
				c0.453,0.043,0.837,0.205,1.26,0.357c1.275,0.459,1.805,2.196,1.104,3.32c-0.048,0.144-0.1,0.287-0.154,0.43
				c-5.769,3.594-9.618,10.359-9.478,17.173C337.722,281.307,334.495,280.177,332.589,277.659z"/>
			<path style="fill:#E0D5D5;" d="M320.186,270.469c-1.497-2.255-2.315-4.832-2.616-7.497c0.549-1.665,1.19-3.277,2.001-4.833
				c0.711-1.361,1.568-2.619,2.526-3.816c1.303-1.63,2.898-3.053,4.654-4.174c0.309-0.198,0.624-0.363,0.951-0.531
				c0.523-0.268,1.137-0.557,1.718-0.684c1.035-0.227,2.098-0.397,3.131-0.071c0.97,0.307,1.581,1.037,1.773,2.027
				c0.152,0.777,0.094,1.613-0.008,2.4c-0.611,0.354-1.205,0.74-1.776,1.17c-3.511,2.35-6.363,5.203-7.719,9.301
				c-1.152,3.267-1.464,6.672-1.007,9.851C322.395,272.836,321.132,271.805,320.186,270.469z"/>
			<path style="fill:#E0D5D5;" d="M332.166,263.768c-0.447,2.283-0.791,4.605-1.581,6.801
				C330.655,268.315,331.245,265.996,332.166,263.768z"/>
			<path style="fill:#E0D5D5;" d="M323.646,289.345c-3.611-0.903-7.576-6.311-9.603-9.372c-1.649-2.45-2.98-5.086-4.06-7.83
				c-0.053-2.174,0.231-4.371,0.99-6.415c1.018,5.927,4.518,12.14,10.435,14.243c1.403,0.341,2.903,0.84,4.395,1.058
				c0.967,0.784,1.892,1.607,2.571,2.654C329.71,286.825,326.576,289.394,323.646,289.345z"/>
			<path style="fill:#6BA845;" d="M203.241,401.703c-0.759-1.35-0.898-3.056-0.401-4.532c0.026-0.077,0.053-0.155,0.079-0.233
				c0.171-0.509,0.332-0.891,0.572-1.371c0.076-0.151,0.152-0.302,0.229-0.453c0.211-0.421,0.575-0.932,0.851-1.276
				c0.588-0.733,1.209-1.423,1.89-2.068c0.783-0.741,1.62-1.377,2.505-1.983c3.35,1.931,7.163,3.119,11.269,3.389
				c3.336,0.199,6.809-0.265,9.957-1.488c0.293,0.587,0.647,1.146,1.022,1.671c-3.002,0.305-5.97,0.887-8.823,1.715
				c-5.8,1.812-11.906,4.15-16.128,8.667C205.027,403.505,203.903,402.879,203.241,401.703z"/>
			<path style="fill:#6BA845;" d="M208.909,389.824c-0.008,0.006-0.017,0.011-0.025,0.017c0.027-0.018,0.054-0.036,0.081-0.055l0,0
				c-0.183,0.124-0.366,0.247-0.549,0.371C208.58,390.047,208.745,389.935,208.909,389.824z"/>
			<path style="fill:#6BA845;" d="M223.91,382.039c-0.342-0.404-0.662-0.829-0.962-1.267c0.054,0.006,0.108,0.012,0.163,0.017
				c1.212,0.143,2.406-0.123,3.59-0.25c0.485-0.103,0.76-0.446,0.847-0.836c2.239,0.092,4.476,0.072,6.707-0.052
				c-1.454,2.464-3.386,4.397-6.118,5.47C226.479,384.617,225.018,383.348,223.91,382.039z"/>
			<path style="fill:#6BA845;" d="M208.029,359.17c-0.839-0.554-1.689-1.09-2.548-1.613c-0.516-0.315-1.035-0.627-1.54-0.959
				c2.803-5.286,9.982-5.748,14.852-3.237c2.497,1.396,4.336,3.584,6.1,5.8c-1.76,0.115-3.489,0.249-5.259,0.228
				c-1.066-0.018-2.142-0.036-3.101,0.346c-0.457-0.832-1.226-1.462-2.28-1.624c-2.214-0.226-3.358,1.038-3.913,2.78
				C209.589,360.293,208.82,359.721,208.029,359.17z"/>
			<path style="fill:#6BA845;" d="M294.265,398.019c0.812-1.163,1.728-2.263,2.749-3.25c2.625-1.828,7.454-2.691,10.617-2.411
				c0.718,0.162,1.419,0.272,2.156,0.221c2.002,0.079,4.196,0.291,5.675,1.827c-2.631,1.783-5.405,3.353-8.314,4.681
				c-0.438,0.178-1.348,0.779-2.04,0.834c-4.806,0.82-9.108,1.256-13.136,2.571C292.556,400.915,293.33,399.416,294.265,398.019z"/>
			<path style="fill:#D2FFA1;" d="M253.402,428.017c-7.842-0.115-13.795-8.243-11.416-15.747c1.273-4.356,5.089-7.82,9.591-8.515
				c4.143,2.27,7.652,5.578,9.759,9.934c1.389,2.767,2.143,5.89,2.094,8.995C261.257,426.003,257.403,428.189,253.402,428.017z"/>
			<path style="fill:#D2FFA1;" d="M226.65,416.44c0.215-5.09,7.487-5.087,7.702,0C234.137,421.528,226.865,421.528,226.65,416.44z"
				/>
			<path style="fill:#D2FFA1;" d="M357.15,389.772c-2.844-0.739-5.311-2.696-6.758-5.23c-0.77-0.889-1.257-1.987-1.359-3.186
				c-0.07-1.248-0.027-2.492,0.224-3.71c3.042-1.475,6.236-2.63,9.437-3.714c4.591-1.488,9.191-2.344,13.596-2.017
				c1.12,1.602,1.726,3.596,1.721,5.541c-0.001,0.572-0.047,1.136-0.134,1.691c-6.473,1.695-11.882,5.756-16.629,10.65
				C357.216,389.789,357.183,389.78,357.15,389.772z"/>
			<path style="fill:#D2FFA1;" d="M338.057,390.595c0.243-5.749,8.458-5.749,8.701,0
				C346.514,396.347,338.299,396.344,338.057,390.595z"/>
			<path style="fill:#D8F6C2;" d="M393.287,395.983c-0.249,2.944-1.111,5.82-2.244,8.552c-1.941,4.745-4.773,9.071-8.135,12.93
				c-5.767,6.242-12.609,11.588-20.189,15.449c-1.423,0.658-2.883,1.22-4.354,1.764c-1.966,0.701-3.914,1.501-5.956,1.952
				c-4.253,0.56-8.572,0.007-12.835-0.212c-5.004-0.306-10.013-0.529-15.011-0.937c-3.47-0.262-6.942-0.49-10.412-0.741
				c12.649-4.011,23.331-14.813,31.656-24.591c7.9-9.425,14.349-21.2,26.082-26.342c5.226-2.251,11.685-2.424,16.132,1.547
				C391.362,387.935,392.889,391.888,393.287,395.983z"/>
			<path style="fill:#BFDFA8;" d="M339.575,436.418c-5.004-0.306-10.013-0.529-15.011-0.937c-3.47-0.262-6.942-0.49-10.412-0.741
				c12.648-4.011,23.331-14.813,31.656-24.591c1.738-2.073,3.406-4.26,5.075-6.465c6.508-0.746,13.19,1.515,17.91,6.057
				c4.337,3.755,6.5,9.467,6.226,15.136c-3.811,3.096-7.932,5.812-12.298,8.036c-3.349,1.44-6.775,2.808-10.311,3.716
				C348.147,437.191,343.835,436.636,339.575,436.418z"/>
			<path style="fill:#1B1818;" d="M135.189,299.875c5.996-4.461,8.241-12.242,1.654-17.341c-1.004-0.745-2.1-1.359-3.198-1.961
				c-0.392,0.779-0.588,1.654-0.501,2.632c0.103,1.326,0.649,2.8,0.939,4.244c0.382-0.331,0.832-0.711,1.285-0.405
				c0.721,0.731,0.272,2.176,0.049,3.058c-0.556,1.757-1.381,3.439-2.594,4.841c-2.593,2.859-6.587,4.214-10.399,3.893
				c-1.494-0.12-2.942-0.523-4.297-1.158c-1.144-0.537-2.406-1.056-3.061-2.204c-0.677-0.782-0.79-1.767-0.504-2.621
				c-0.394-0.505-0.755-1.034-1.088-1.557c-0.531-0.861-0.995-1.757-1.392-2.681c-1.594,2.099-3.242,4.447-2.996,7.212
				c0.512,3.12,2.713,5.919,5.571,7.253C121.435,305.777,129.412,304.129,135.189,299.875z M170.239,322.553
				c4.759-5.39,0.719-13.466-3.33-18.07c-3.637-4.142-8.12-7.585-13.188-9.784c-2.117-0.841-4.299-1.499-6.451-2.246
				c-0.297,1.501-0.807,2.965-1.463,4.326c-5.583,10.615-19.153,16.672-30.779,13.654c-0.826-0.176-1.624-0.414-2.39-0.708
				c-0.129,2.123-0.547,4.263,0.046,6.352c1.105,3.85,2.898,7.206,6.568,8.551c-0.073-0.704-0.081-1.41-0.02-2.109
				c-0.345-1.637,1.497-3.058,2.984-2.265c0.666,0.298,1.019,0.963,1.195,1.637c0.551,0.635,1.013,1.324,1.269,2.131
				c1.246,2.988,2.799,5.913,5.124,8.206c0.449,0.517,1.142,0.737,1.587,1.242c0.672,1.505-1.954,1.634-2.896,1.512
				c-2.141-0.275-4.027-1.279-5.532-2.716c-0.087,1.351-0.043,2.754,0.598,3.961c2.77,4.326,8.654,6.017,13.491,4.712
				c7.982-2.253,9.084-7.22,10.576-14.538c-0.049-0.529,0.353-1.157,0.944-0.938c2.512,2.312,3.01,6.12,2.611,9.476
				c2.658-0.135,5.372-0.981,7.326-2.839c2.53-2.658,3.369-6.44,3.451-10.011c0.071-2.824-0.717-5.571-0.773-8.38
				c-0.42-0.909,0.827-1.786,1.526-0.987c0.777,1,1.788,1.841,2.428,2.973c1.814,2.645,2.724,5.654,2.85,8.658
				C168.755,323.771,169.525,323.195,170.239,322.553z M187.023,117.075c0.126-1.962-0.378-3.489-2.191-5.281
				c-4.118-4.626-9.533-7.895-15.21-10.259c-18.552-7.909-40.251-4.824-57.356,5.259c3.274,6.956,8.967,12.64,14.828,17.497
				c10.168,7.947,23.312,11.496,36.119,10.782c4.705-0.431,9.288-1.909,13.64-3.694c1.857-0.932,3.581-2.186,5.064-3.681
				c0.432-1.31,0.864-2.632,1.355-3.926c-0.06-0.007-0.119-0.017-0.179-0.029c-2.543-0.483-4.871-1.698-7.302-2.556
				c-5.993-2.447-12.266-4.1-18.523-5.718c-10.75-2.911-21.74-4.817-32.73-6.563c-1.032-0.137-2.064-0.28-3.096-0.423
				c-0.508-0.07-1.017-0.131-1.525-0.199c-0.471-0.092-1.232-0.028-1.321-0.632c0.034-0.647,1.071-0.536,1.524-0.608
				c1.789-0.089,3.579-0.124,5.37-0.139c15.067-0.641,30.112,1.372,44.576,5.599c4.706,1.327,9.315,3.054,13.612,5.4
				c0.598,0.394,1.243,0.817,1.75,1.346C185.898,118.489,186.424,117.76,187.023,117.075z M191.785,74.934
				c0.47-0.386,1.422-1.375,2.338-1.948c-3.012,0.358-11.417,0.968-14.402,3.441c1.624,1.669,4.231,2.265,6.503,1.707
				C188.365,77.674,190.146,76.324,191.785,74.934z M192.122,113.076c0.871-0.484,1.777-0.91,2.708-1.276
				c-2.842-4.637-3.115-10.659-3.833-15.948c-0.511-4.837-1.492-9.826-0.489-14.654c0.413-1.501,1.152-2.865,1.898-4.225
				c-0.715,0.406-1.351,0.738-1.704,0.953c-2.505,1.32-5.401,2.447-8.27,1.911c-1.209-0.239-2.762-0.767-3.773-1.68
				c-1.528,6.836,1.19,15.189,3.069,21.795c0.016,0.099,0.044,0.213,0.081,0.34C185.468,102.773,191.347,108.14,192.122,113.076z
				 M234.255,379.651c-2.231,0.123-4.468,0.143-6.707,0.052c-0.087,0.39-0.362,0.733-0.847,0.836
				c-1.184,0.127-2.378,0.394-3.59,0.25c-6.838-0.682-12.396-6.923-13.103-13.63c-0.325-3.246-0.471-9.531,4.247-9.048
				c1.054,0.162,1.823,0.793,2.28,1.624c1.478-0.589,3.228-0.228,4.799-0.379c1.187-0.04,2.375-0.105,3.56-0.196
				c-1.765-2.216-3.604-4.404-6.1-5.8c-3.919-1.944-9.172-2.211-12.727,0.634c-2.702,2.403-4.024,6.215-4.062,9.775
				c0.165,6.193,2.01,12.59,6.537,17.016c4.75,4.793,12.133,6.697,18.59,4.68C230.405,384.498,232.628,382.406,234.255,379.651z
				 M263.066,365.093c-0.099-0.862-0.16-1.742-0.463-2.445c-1.228-2.3-3.15-4.024-5.086-5.716c-3.99,2.667-8.875,4.073-13.378,5.556
				c-8.411,2.772-17.278,3.881-26.114,3.887c-0.414-0.028-0.817-0.105-1.198-0.223c0.073,1.064,0.272,2.11,0.685,3.099
				c0.646,1.658,1.63,3.077,2.812,4.326c1.876-0.2,4.006-0.071,5.469-0.179c8.583-0.225,17.167-1.332,25.41-3.787
				C255.239,368.343,259.216,366.858,263.066,365.093z M263.263,424.844c0.531-3.792-0.216-7.743-1.928-11.155
				c-4.14-8.558-13.688-13.069-22.826-13.614c-11.599-0.729-22.928,3.344-32.833,9.104c-0.395,0.968-1.969,0.627-1.926-0.424
				c0.186-1.423,0.665-2.839,1.604-3.971c4.221-5.209,10.806-7.763,17.036-9.71c2.854-0.828,5.821-1.41,8.824-1.715
				c-0.376-0.525-0.729-1.085-1.022-1.671c-3.149,1.223-6.621,1.688-9.957,1.488c-10.452-0.687-19.013-7.332-22.847-16.996
				c-1.81-4.726-2.632-9.927-2.206-14.975c0.012-0.083,0.024-0.164,0.036-0.247c-4.481,3.347-6.622,6.588-8.836,12.888
				c-3.441,10.474-3.102,21.937-0.167,32.49c1.862,6.757,4.575,13.689,9.934,18.44c9.382,7.913,31.899,8.49,43.97,8.297
				c5.56-0.118,11.24-0.182,16.585-1.882C259.742,430.236,262.671,428.162,263.263,424.844z M283.296,345.823
				c0.292-1.14,0.551-2.497,0.866-3.88c-1.135,0.315-2.299,0.529-3.48,0.629C281.566,343.647,282.438,344.73,283.296,345.823z
				 M319.728,391.309c-2.722-2.745-6.866-3.948-10.649-3.069c-5.89,1.275-11.371,4.816-14.814,9.778
				c-0.935,1.398-1.708,2.897-2.292,4.473c4.027-1.315,8.329-1.751,13.135-2.571c0.693-0.055,1.602-0.657,2.039-0.834l0.398-0.191
				C311.931,396.889,315.936,394.246,319.728,391.309z M330.079,231.483c-0.455-4.376-1.146-8.723-2.063-13.028
				c-1.185-5.396-2.719-10.707-4.584-15.908c-1.88-5.144-4.08-10.16-6.579-15.033c-2.52-4.833-5.331-9.505-8.424-13.992
				c-3.019-4.319-6.286-8.455-9.802-12.381c-3.463-3.82-7.152-7.425-11.055-10.795c-3.703-3.152-7.583-6.08-11.638-8.766
				c-3.891-2.546-7.936-4.846-12.11-6.894c-4.067-1.957-8.242-3.664-12.519-5.106c-4.589-1.509-9.271-2.697-14.014-3.62
				c-5.855-1.095-11.776-1.789-17.721-2.159c-1.791-0.092-3.585-0.116-5.379-0.114c-1.962,0.003-3.925,0.014-5.882,0.15
				c-0.599,0.049-1.199,0.101-1.8,0.146c-0.064,0.005-0.126,0.012-0.189,0.023c-0.357,0.272-0.94,0.056-1.011-0.418
				c-0.065-0.439,0.33-0.778,0.728-0.719c0.007,0.001,0.018,0.002,0.03,0.004c0.003-0.001,0.005-0.002,0.009-0.002
				c0.434-0.11,0.853-0.29,1.281-0.421c0.858-0.262,1.721-0.505,2.578-0.77c1.596-0.492,3.227-0.901,4.863-1.234
				c0.497-0.101,0.995-0.196,1.494-0.286c-3.882-1.641-7.769-3.565-11.909-3.7c-4.263-0.172-9.121,0.628-12.163,3.862
				c-2.387,2.874-3.449,6.49-4.962,9.863c0.86-0.287,1.743-0.555,2.64-0.739c0.392-0.08,0.782-0.147,1.181-0.173
				c0.237-0.014,0.47,0.01,0.705,0.026h0.008c0.004,0.001,0.007,0.001,0.011,0.001h0.005c0.02-0.002,0.039-0.005,0.058-0.007
				c0.036-0.008,0.071-0.017,0.107-0.028c0.092-0.033,0.186-0.066,0.277-0.104c0.256-0.104,0.422,0.289,0.167,0.394
				c-0.087,0.036-0.174,0.078-0.26,0.119c-0.039,0.021-0.077,0.044-0.115,0.069c-0.009,0.007-0.018,0.014-0.027,0.022
				c-0.006,0.006-0.012,0.012-0.018,0.018c-0.187,0.215-0.359,0.442-0.576,0.637c-0.352,0.317-0.722,0.615-1.101,0.898
				c-0.584,0.436-1.191,0.847-1.763,1.299c-0.522,0.411-1.049,0.815-1.57,1.229c-2.183,1.736-4.36,3.489-6.463,5.323
				c-2.65,2.358-5.182,4.833-7.534,7.488c-1.96,2.25-3.781,4.61-5.461,7.074c-1.709,2.555-3.257,5.206-4.648,7.946
				c-1.574,3.168-2.948,6.426-4.124,9.763c-1.345,3.915-2.436,7.912-3.284,11.965c-0.909,4.518-1.502,9.092-1.831,13.687
				c-0.334,5.279-0.281,10.572,0.057,15.849c0.422,6.092,1.24,12.149,2.445,18.137c1.251,6.035,2.882,11.981,4.883,17.811
				c0.012,0.035,0.024,0.068,0.036,0.102c1.009,0.103,2.012,0.238,3.006,0.404c1.683,0.235,7.333,1.934,6.688,4.174
				c-1.172,2.436-8.127,1.564-10.502,1.629c-0.879-0.008-1.758-0.018-2.638-0.027c-0.356,0.051-0.715,0.091-1.076,0.113
				c-9.414,0.917-18.902,2.617-27.292,7.2c-8.329,4.364-13.868,11.929-11.646,21.628c0.592,2.342,1.491,4.585,2.533,6.761
				c0.077,0.181,0.164,0.36,0.253,0.539c1.077,0.27,2.157,0.548,3.266,0.608c1.763,0.021,3.469-0.438,5.082-1.143
				c-2.289-2.652-2.997-8.081-2.314-10.761c1.849-7.298,9.008-10.325,15.631-12.098c9.82-2.463,20.546-4.481,30.394-1.162
				c3.632,1.422,6.556,3.312,0.572,4.234c-0.655,0.082-1.311,0.147-1.969,0.199c1.904,3.416,3.946,6.754,6.127,10.004
				c3.083,4.536,6.427,8.888,10.038,13.017c3.253,3.674,6.712,7.159,10.381,10.418c3.356,2.942,6.879,5.689,10.568,8.202
				c3.282,2.204,6.688,4.211,10.212,6.001c3.169,1.574,6.424,2.965,9.763,4.141c2.747,0.94,5.538,1.731,8.371,2.359
				c-0.244-0.532-0.487-1.065-0.77-1.58c-0.327-0.238-0.418-0.75-0.12-1.078c0.308-0.337,0.894-0.281,1.139,0.072
				c9.032,4.373,15.329,12.629,21.854,19.984c7.039,8.299,13.883,16.865,20.317,25.63c0.007,0.009,0.014,0.018,0.02,0.027
				c4.808,6.789,9.719,13.593,13.636,20.945c2.347-2.209,5.074-4.155,8.012-5.616c-0.23-0.42-0.455-0.837-0.695-1.218
				c-1.798-3.048-3.666-6.054-5.592-9.023c-10.46-16.617-22.558-32.064-34.77-47.402c-0.376-0.643-1.383-0.951-1.082-1.85
				c0.225-0.615,1.056-0.806,1.515-0.382c2.097,1.095,4.022,2.507,5.928,3.9c2.741,2.021,5.277,4.292,7.663,6.714
				c3.64,1.38,7.479,1.694,11.346-0.352c4.094-2.069,6.665-6.141,8.705-10.101c0.745-1.503,1.444-3.026,2.126-4.557
				c0.127-0.308,0.258-0.624,0.4-0.935c-0.158-1.187,0.275-2.443,1.275-3.199c1.77-1.337,3.481-2.751,5.133-4.23
				c2.449-2.223,4.755-4.597,6.921-7.097c2.186-2.565,4.217-5.259,6.086-8.064c0.062-0.106,0.129-0.209,0.201-0.307
				c0.18-0.277,0.359-0.556,0.535-0.835c-8.59-3.989-13.595-14.658-13.086-23.947c0.274-3.52,1.085-7.48,3.849-9.912
				c0.91-0.749,2.196-1.459,3.435-1.419c0.101-5.223,1.495-10.43,4.19-14.897C318.192,238.746,323.691,233.93,330.079,231.483z
				 M322.405,289.458c3.246,0.312,7.488-2.045,5.969-5.774c-0.679-1.047-1.604-1.87-2.571-2.654
				c-1.493-0.219-2.992-0.717-4.395-1.058c-5.224-1.825-8.582-7.003-9.984-12.151c-0.174-0.691-0.325-1.389-0.451-2.092
				c-0.492,1.307-0.772,2.69-0.913,4.076c-0.572,6.209,1.815,12.786,6.442,17.003C318.169,288.205,320.214,289.278,322.405,289.458z
				 M353.328,233.277c0.074-0.552,0.088-1.106-0.26-1.566c-1.417-1.731-3.71-2.331-5.735-3.063c-3.5-1.217-7.21-1.373-10.823-2.025
				c0.146,1.076,0.277,2.153,0.395,3.231c1.498-0.15,3.021-0.165,4.557-0.035C345.553,230.245,349.544,231.458,353.328,233.277z
				 M376.621,235.302c-0.856-6.865-5.228-11.614-11.349-14.463c-3.584-1.595-6.821-2.459-10.51-3.357
				c-4.346-1.033-8.759-1.773-13.205-2.207c-1.525-0.196-3.082-0.24-4.635-0.316c0.002,0.468,0.022,0.936,0.063,1.403
				c0.093,1.951,1.085,3.621,2.514,4.857c0.139-0.006,0.277-0.011,0.414-0.016c5.642-0.052,15.454,1.961,18.487,7.174
				c0.38,0.647,0.637,1.34,0.789,2.056c0.434-0.121,0.871-0.22,1.305-0.302C366.458,229.271,372.191,231.465,376.621,235.302z
				 M374.97,276.19c0.625-3.674-0.632-7.356-1.825-10.791c-2.099-5.596-5.144-10.858-9.227-15.243
				c-5.075-5.451-11.12-10.295-18.34-12.483c-11.665-3.811-23.328,4.114-27.001,15.227c-1.689,5.706-1.78,12.461,1.61,17.569
				c0.946,1.336,2.209,2.367,3.628,3.144c-0.457-3.179-0.145-6.584,1.007-9.851c1.356-4.098,4.208-6.952,7.719-9.301
				c2.38-1.79,5.163-2.82,7.869-3.989c0.976-0.472,1.8,1.03,0.851,1.586c-0.783,0.433-1.472,1.027-2.137,1.622
				c-5.472,5.108-11.072,15.316-7.331,22.684c1.683,3.444,5.445,4.86,9.009,5.484c-0.148-7.244,4.211-14.433,10.594-17.815
				c1.413-0.809,4.954-1.008,4.754,1.364c-0.56,1.288-1.535,2.315-2.418,3.391c-1.153,1.406-2.247,2.848-3.24,4.373
				c-2.701,3.913-3.989,9.447-1.107,13.606c2.769,3.935,8.168,5.182,12.593,3.599c2.662-0.949,4.398-2.96,4.055-5.897
				c0-0.324-0.041-0.649-0.099-0.976c-0.626,0.328-1.273,0.617-1.86,1.013c-0.215,0.134-0.432,0.313-0.707,0.277
				c-1.089-0.275-0.493-1.959-0.447-2.758c0.427-2.168,1.861-4.009,3.523-5.403c1.587-1.445,4.727-2.822,6.215-0.574
				c1.057,1.625-0.248,3.404-1.513,4.472c0.225,0.478,0.408,0.984,0.554,1.505C373.201,280.478,374.689,278.624,374.97,276.19z
				 M377.83,256.619c1.503-6.08-1.369-12.559-6.112-16.426c-2.903-2.283-6.6-3.735-10.33-3.43c-0.56,0.032-1.104,0.149-1.638,0.303
				c7.451,5.243,13.683,12.738,17.678,20.725C377.598,257.392,377.744,257,377.83,256.619z M388.281,380.816
				c-0.907-1.211-1.885-2.31-2.893-3.238c-7.758-7.091-17.244-6.71-26.695-3.646c-4.063,1.376-8.113,2.866-11.859,4.979
				c-9.355,5.5-16.787,13.613-25.585,19.882c-3.558,2.507-7.446,4.62-11.628,5.876c-3.281,1.363-6.681,2.41-10.153,3.153
				c-1.776,0.393-3.571,0.713-5.315,1.239c-2.978,1.011-5.693,2.786-7.781,5.142c-5.11,6.058-4.075,12.765,3.113,16.462
				c3.244,1.716,6.839,2.384,10.45,2.795c11.638,0.234,22.561-6.132,30.979-13.763c5.572-4.76,10.518-10.196,14.994-15.988
				c8.361-11.114,18.13-24.642,33.306-25.381C382.439,378.149,385.588,379.105,388.281,380.816z M391.044,404.535
				c1.133-2.732,1.994-5.609,2.244-8.552c-0.398-4.095-1.925-8.047-5.265-10.628c-4.446-3.971-10.906-3.798-16.132-1.547
				c-11.733,5.142-18.182,16.917-26.082,26.342c-8.325,9.777-19.007,20.58-31.656,24.591c3.471,0.251,6.943,0.479,10.412,0.741
				c4.998,0.408,10.007,0.631,15.011,0.937c4.262,0.22,8.581,0.773,12.835,0.212c2.042-0.452,3.99-1.251,5.956-1.952
				c1.471-0.544,2.931-1.106,4.354-1.764c7.58-3.861,14.422-9.207,20.189-15.449C386.271,413.606,389.102,409.281,391.044,404.535z
				 M400.098,391.028c1.465,10.888-4.813,22.816-11.792,30.83c-4.524,5.123-9.927,9.526-15.598,13.301
				c-4.179,2.851-8.754,5.034-13.546,6.64c-1.441,0.483-2.848,1.068-4.345,1.365c-4.569,0.433-9.184,0.257-13.768,0.145
				c-13.166-0.506-26.346-1.421-39.457-2.683c-5.081-0.449-10.239-1.193-14.83-3.548c-12.272-5.823-13.9-19.369-4.414-28.747
				c1.05-1.027,2.107-1.903,3.176-2.653c-1.062-3.006,0.76-7.685,2.697-10.955c-0.088-0.129-0.174-0.259-0.258-0.39
				c-1.379-1.936-2.677-3.927-3.961-5.927c-3.478-5.56-7.15-10.997-11.01-16.301c-0.745-1.009-1.494-2.016-2.249-3.018
				c-1.163,0.598-2.337,1.174-3.515,1.741c-8.718,4.119-18.101,7.131-27.693,8.344c0.645,3.325-1.28,6.791-3.665,9.072
				c-0.22,0.199-0.446,0.391-0.676,0.577c0.387,0.421,0.785,0.826,1.221,1.179c1.188,0.963,2.194,2.106,3.179,3.255
				c7.645,0.602,15.056,3.191,20.951,8.283c7.144,6.085,11.339,16.112,9.367,25.436c-1.707,7.315-9.09,11.047-15.988,12.068
				c-10.047,1.479-20.307,1.174-30.419,0.596c-9.074-0.862-18.425-2.105-26.717-6.088c-5.966-3.022-10.425-8.42-13.242-14.402
				c-6.659-14.089-8.599-30.719-4.321-45.787c2.228-7.484,6.19-14.684,13.068-18.79c1.849-1.153,3.977-2.275,6.191-2.378
				c1.425-2.157,3.292-3.993,5.615-5.234c6.423-3.392,14.833-2.454,20.553,1.946c2.737,2.052,4.929,4.796,6.536,7.803
				c0.269,0.516,0.589,1.056,0.852,1.611c6.843-1.225,13.55-3.297,19.955-5.988c1.322-0.629,2.601-1.329,3.86-2.072
				c-3.556-4.321-7.156-8.605-10.77-12.874c-1.111-1.334-2.241-2.662-3.335-4.018c-2.967-0.361-5.914-0.909-8.818-1.621
				c-6.893-1.685-13.555-4.353-19.803-7.701c-6.522-3.493-12.653-7.719-18.29-12.509c-6.051-5.142-11.587-10.863-16.566-17.048
				c-4.827-5.994-9.144-12.405-12.921-19.111c-0.703-1.248-1.388-2.507-2.055-3.774c-1.72,0.06-3.439,0.153-5.15,0.358
				c-6.192,0.743-12.38,1.926-18.257,4.046c-0.522,0.189-1.069,0.41-1.616,0.664c4.182,1.266,7.519,5.091,8.722,9.237
				c0.309,0.962,0.482,1.95,0.539,2.945c0.995-0.204,2.021-0.26,2.595-0.262c3.454-0.09,6.85,0.896,9.951,2.365
				c10.235,4.925,19.067,16.337,18.747,27.955c-0.261,5.897-5.153,12.241-11.482,11.659c-0.066-0.012-0.132-0.022-0.199-0.031
				c-1.989,6.157-7.305,11.066-14.681,10.894c-1.128-0.083-2.409-0.124-3.49-0.556c-3.797,5.402-11.648,7.844-18.021,7.139
				c-9.271-1.253-16.665-8.495-13.049-18.188c0.149-0.352,0.282-0.718,0.425-1.081c-0.699,0.052-1.404,0.024-2.077-0.063
				c-4.314-0.818-7.413-4.361-9.098-8.237c-1.686-3.441-2.007-7.536-0.673-11.146c0.366-0.874,0.657-1.824,1.197-2.604
				c-5.631-5.028-7.5-13.71-2.409-20.391c1.067-1.339,3.167-3.507,5.102-4.412c-0.225-2.273-0.126-4.584,0.276-6.828
				c3.644-17.857,26.188-25.102,42.251-26.189c0.262-0.012,0.524-0.021,0.785-0.026c-1.977-6.049-3.575-12.213-4.741-18.475
				c-1.431-7.69-2.223-15.512-2.224-23.337c-0.001-4.065,0.212-8.133,0.593-12.181c0.354-3.759,0.909-7.494,1.647-11.196
				c0.738-3.703,1.649-7.367,2.796-10.965c1.092-3.425,2.377-6.791,3.863-10.065c1.456-3.208,3.118-6.33,4.976-9.323
				c2.054-3.309,4.357-6.442,6.916-9.377c0.38-0.432,0.762-0.861,1.154-1.283c0.53-0.57,1.071-1.131,1.623-1.681
				c-5.57,1.379-11.626,1.361-17.158,0.758c-18.372-1.549-35.269-12.548-44.347-28.56c-3.822-5.995-5.333-10.406,2.437-13.706
				c10.149-5.529,21.494-8.977,33.08-9.32c10.674-0.384,21.542,1.683,31.12,6.442c-3.537-6.992-5.4-16.526-1.654-23.523
				c1.408-2.478,4.191-3.711,6.799-4.527c3.703-1.133,7.585-1.629,11.443-1.828c7.639-0.616,7.972,4.068,6.646,10.217
				c-0.527,2.477-1.095,4.981-2.211,7.271c-1.113,2.102-1.588,4.45-1.779,6.803c-0.586,5.639,1.456,10.968,2.799,16.343
				c0.225,1.163,0.42,2.332,0.939,3.371c1.275-0.282,2.57-0.458,3.862-0.525c7.559-0.451,14.163,3.662,20.749,6.752
				c0.773,0.365,2.555,1.156,3.927,2.055c6.454-0.159,12.909,0.582,19.195,2.068c3.803,0.899,7.544,2.036,11.214,3.378
				c3.597,1.316,7.102,2.854,10.538,4.544c6.858,3.372,13.372,7.501,19.41,12.182c6.087,4.718,11.701,9.994,16.845,15.722
				c5.103,5.681,9.697,11.842,13.719,18.334c4.044,6.528,7.554,13.401,10.414,20.53c1.758,4.379,3.282,8.843,4.564,13.376
				c3.973-0.649,9.833-0.074,12.3,0.209c9.992,1.396,20.7,3.116,28.831,9.529c4.911,3.845,8.599,9.457,9.499,15.686
				c0.286,2.367,0.38,4.812-0.28,7.126c-0.097,0.47-0.299,0.912-0.578,1.302v0.001c0.984,1.937,1.706,3.991,2.113,6.092
				c0.722,4.166,0.833,8.849-1.818,12.392c-0.694,0.914-1.788,1.876-2.954,2.29c0.251,0.716,0.482,1.434,0.692,2.15
				c1.316,4.271,2.045,8.98,0.647,13.292c-0.929,3.583-5.275,9.102-9.511,9.435c-1.715,6.578-9.487,9.901-15.932,9.173
				c-6.14-0.589-11.732-4.744-13.975-10.423c-0.788,0.18-1.611,0.239-2.412,0.251c-1.452-0.006-2.813-0.176-4.08-0.489
				c-0.609,4.947-5.742,9.057-11.869,9.292c-0.59,0.983-1.2,1.954-1.828,2.914c-0.088,0.134-0.17,0.263-0.256,0.389
				c-1.515,2.291-3.119,4.521-4.843,6.661c-2.604,3.233-5.423,6.294-8.471,9.114c-1.634,1.511-3.319,2.965-5.064,4.345
				c-0.02,0.13-0.048,0.259-0.085,0.39c-0.18,0.722-0.541,1.409-0.843,2.087c-1.924,4.314-3.97,8.642-7.006,12.302
				c-1.375,1.715-3.013,3.226-4.834,4.459c0.06,1.453-0.044,2.864-0.111,3.54c-0.326,3.001-1.394,5.879-2.808,8.53
				c4.115,5.567,7.998,11.311,11.791,17.094c2.733,4.369,5.723,8.65,8.081,13.232c3.286-0.672,6.669-0.643,9.956,0.337
				c2.927,1.027,5.869,2.765,7.452,5.448c0.608-0.523,1.213-1.05,1.815-1.581c7.612-6.448,15.458-12.979,24.93-16.479
				c9.693-3.938,21.04-6.44,30.958-1.888c4.899,2.243,9.216,5.824,12.213,10.309C397.267,381.667,399.457,386.173,400.098,391.028z"
				/>
		</g>
		<g>
			<path style="fill:#1B1818;" d="M256.622,217.668c0.188,2.153,0.137,4.342-0.54,6.413c-0.434,1.323-1.2,2.557-2.35,3.365
				c-0.517,0.363-1.178,0.647-1.812,0.712c-0.255,0.027-0.497,0.047-0.743,0.047c-0.142,0-0.286-0.006-0.434-0.024
				c-0.392-0.043-0.744-0.139-1.117-0.259c-1.126-0.363-2.11-1.174-2.915-2.016c-0.886-0.928-1.643-1.971-2.309-3.067
				c-2.293-3.773-3.678-8.045-4.538-12.357c-0.433-2.168-0.731-4.398-0.713-6.613c0.008-0.989,0.052-1.982,0.204-2.961
				c0.144-0.929,0.334-1.87,0.703-2.74c0.315-0.743,0.743-1.484,1.324-2.054c0.398-0.389,0.826-0.729,1.333-0.969
				c0.513-0.243,1.056-0.361,1.619-0.404c2.231-0.172,4.151,1.45,5.484,3.058c0.443,0.535,0.86,1.105,1.218,1.701
				c0.295,0.488,0.515,0.998,0.732,1.523c0.16,0.389,0.312,0.777,0.452,1.171c0.618,1.133,1.132,2.328,1.586,3.529
				c0.813,2.149,1.445,4.353,1.949,6.594C256.151,214.086,256.464,215.861,256.622,217.668z"/>
			<path style="fill:#1B1818;" d="M281.434,215.524c0.188,2.153,0.137,4.342-0.54,6.413c-0.433,1.323-1.2,2.557-2.35,3.365
				c-0.517,0.363-1.178,0.647-1.812,0.712c-0.255,0.027-0.497,0.047-0.743,0.047c-0.142,0-0.286-0.006-0.434-0.023
				c-0.392-0.044-0.744-0.139-1.117-0.259c-1.126-0.363-2.11-1.173-2.915-2.016c-0.886-0.928-1.643-1.971-2.309-3.067
				c-2.293-3.773-3.678-8.045-4.538-12.357c-0.433-2.168-0.731-4.398-0.713-6.613c0.008-0.989,0.052-1.982,0.204-2.961
				c0.144-0.929,0.334-1.87,0.703-2.74c0.315-0.743,0.743-1.484,1.324-2.054c0.398-0.389,0.826-0.729,1.333-0.969
				c0.513-0.243,1.056-0.361,1.619-0.404c2.231-0.172,4.151,1.45,5.484,3.058c0.443,0.535,0.86,1.105,1.218,1.701
				c0.295,0.488,0.515,0.999,0.732,1.523c0.16,0.389,0.312,0.777,0.452,1.171c0.618,1.134,1.132,2.328,1.586,3.529
				c0.813,2.149,1.445,4.353,1.949,6.594C280.963,211.942,281.276,213.718,281.434,215.524z"/>
			<path style="fill:#1B1818;" d="M296.763,215.47c1.043,0.602,1.481,1.938,1.013,3.044c-0.448,1.114-1.767,1.735-2.906,1.383
				c-0.559,0.147-1.172,0.169-1.737,0.065c-0.005-0.001-0.008-0.002-0.013-0.003c0.036,0.259,0.07,0.52,0.099,0.78
				c0.138,1.208,0.165,2.431,0.138,3.646c-0.027,1.247-0.122,2.496-0.306,3.731c-0.182,1.221-0.455,2.427-0.738,3.626
				c-0.301,1.274-0.633,2.551-1.12,3.769c-0.475,1.19-1.028,2.347-1.645,3.471c-1.247,2.272-2.741,4.419-4.519,6.31
				c-0.43,0.458-0.863,0.911-1.314,1.349c-0.497,0.483-1.011,0.945-1.534,1.4c-0.942,0.822-1.942,1.606-2.995,2.28
				c-1.085,0.695-2.202,1.312-3.37,1.858c-1.091,0.51-2.215,0.944-3.347,1.356c-1.275,0.463-2.597,0.817-3.929,1.073
				c-1.289,0.247-2.585,0.389-3.896,0.455c-0.507,0.025-1.014,0.039-1.52,0.039c-0.81,0-1.618-0.034-2.428-0.106
				c-1.25-0.11-2.494-0.307-3.723-0.563c-1.222-0.254-2.428-0.542-3.618-0.925c-1.249-0.402-2.457-0.921-3.649-1.464
				c-1.17-0.532-2.322-1.111-3.428-1.766c-1.124-0.666-2.181-1.427-3.206-2.237c-1.018-0.805-2.001-1.669-2.886-2.622
				c-0.881-0.948-1.682-1.966-2.429-3.022c-1.44-2.033-2.694-4.204-3.538-6.555c-0.215-0.599-0.414-1.202-0.582-1.814
				c-1.078,0.664-2.404,0.753-3.557-0.123c-1.626-1.24-1.471-3.571-0.116-4.951c1.084-1.288,2.27-2.515,3.724-3.383
				c1.593-1.117,5.882-2.64,6.847-0.141c0.437,1.504-1.859,3.276-2.76,4.32c-0.311,0.348-0.627,0.694-0.946,1.036
				c0.257,0.552,0.473,1.126,0.688,1.696c0.502,1.332,1.007,2.653,1.627,3.935c0.404,0.767,0.837,1.51,1.309,2.238
				c0.748,1.074,1.541,2.108,2.388,3.107c0.496,0.544,1.011,1.061,1.552,1.563c0.918,0.792,1.87,1.536,2.864,2.231
				c0.755,0.482,1.524,0.928,2.315,1.349c1.507,0.738,3.044,1.41,4.618,1.998c0.619,0.209,1.243,0.4,1.875,0.567
				c0.679,0.18,1.364,0.331,2.049,0.48c0.639,0.125,1.28,0.242,1.924,0.339c0.675,0.103,1.35,0.171,2.029,0.227
				c0.544,0.026,1.088,0.045,1.632,0.04c0.55-0.005,1.1-0.032,1.649-0.062c0.419-0.035,0.837-0.076,1.256-0.123
				c0.454-0.051,0.905-0.14,1.354-0.224c0.478-0.106,0.952-0.219,1.426-0.338c0.534-0.133,1.058-0.308,1.582-0.475
				c0.813-0.288,1.62-0.591,2.418-0.921c0.782-0.323,1.546-0.679,2.304-1.053c0.454-0.242,0.903-0.491,1.35-0.747
				c0.403-0.23,0.788-0.492,1.173-0.75c0.812-0.579,1.593-1.186,2.352-1.832c0.73-0.673,1.43-1.367,2.105-2.095
				c0.598-0.701,1.157-1.421,1.69-2.173c0.284-0.43,0.564-0.861,0.822-1.307c0.287-0.495,0.553-0.998,0.814-1.506
				c0.705-1.429,1.372-2.873,1.911-4.373c0.452-1.383,0.83-2.79,1.142-4.211c0.187-0.963,0.326-1.928,0.404-2.906
				c0.035-0.765,0.016-1.522-0.03-2.284c-0.065-0.861-0.166-1.715-0.286-2.571c-0.081-0.58-0.159-1.162-0.251-1.741
				c-0.511-0.18-1.015-0.38-1.51-0.599c-0.672-0.351-1.62-0.667-1.767-1.51c-0.103-0.955,0.667-1.741,1.38-2.253
				c1.321-0.965,3.011-1.266,4.618-1.223c1.621,0.11,3.405,0.45,4.61,1.619C296.426,215.069,296.518,215.349,296.763,215.47z"/>
			<path style="fill:#FFFFFF;" d="M239.864,210.483c-0.432-2.168-0.731-4.398-0.713-6.613c0.003-0.398,0.012-0.797,0.032-1.195
				c11.527,0.431,11.359,5.327,0.793,8.355C239.938,210.848,239.901,210.666,239.864,210.483z"/>
			<path style="fill:#FFFFFF;" d="M263.964,201.727c0.008-0.915,0.045-1.834,0.172-2.741c1.717,0.277,3.373,0.79,4.99,1.417
				c1.274,0.404,3.17,1.376,1.926,2.897c-0.464,0.649-1.186,1.08-1.839,1.529c-1.468,1.001-3.05,1.879-4.737,2.442
				C264.155,205.442,263.948,203.579,263.964,201.727z"/>
		</g>
	</g>
</g>
</svg>
