<?xml version="1.0" standalone="no"?>
<!DOCTYPE svg PUBLIC "-//W3C//DTD SVG 20010904//EN"
 "http://www.w3.org/TR/2001/REC-SVG-20010904/DTD/svg10.dtd">
<svg version="1.0" xmlns="http://www.w3.org/2000/svg"
 width="700.000000pt" height="700.000000pt" viewBox="0 0 700.000000 700.000000"
 preserveAspectRatio="xMidYMid meet">
<metadata>
Created by potrace 1.14, written by Peter Selinger 2001-2017
</metadata>
<g transform="translate(0.000000,700.000000) scale(0.100000,-0.100000)"
fill="#000000" stroke="none">
<path d="M2615 6059 c-133 -20 -185 -59 -205 -153 -12 -59 -1 -150 26 -215 8
-18 14 -35 14 -37 0 -1 -20 6 -45 17 -133 59 -346 83 -500 56 -110 -20 -194
-47 -301 -97 -137 -63 -148 -89 -88 -199 152 -277 447 -438 767 -418 l88 6
-49 -62 c-152 -191 -238 -433 -262 -732 -16 -196 12 -450 70 -636 22 -71 18
-79 -40 -79 -65 0 -204 -40 -296 -85 -72 -35 -103 -57 -151 -108 -64 -69 -89
-121 -99 -213 -5 -42 -13 -58 -41 -84 -49 -47 -67 -87 -67 -150 0 -56 26 -123
58 -149 13 -11 13 -16 0 -46 -31 -74 -10 -159 56 -227 33 -35 54 -48 74 -48
27 0 27 -1 20 -45 -14 -96 21 -160 111 -201 96 -45 236 -23 308 48 19 19 34
23 84 23 52 0 68 5 105 30 23 17 53 48 64 69 17 30 33 42 70 55 32 11 58 29
78 54 29 37 31 44 31 125 0 79 -4 93 -34 152 -69 133 -211 238 -338 248 -54 4
-63 8 -63 24 0 40 -52 108 -104 135 -16 9 -12 13 30 27 55 18 174 42 249 50
l50 5 47 -83 c107 -188 296 -405 458 -527 183 -137 349 -211 576 -255 11 -2
64 -56 118 -121 96 -115 97 -117 74 -130 -39 -22 -129 -54 -219 -78 l-87 -23
-31 49 c-42 63 -90 103 -153 123 -95 31 -181 16 -248 -41 -22 -19 -67 -48
-100 -64 -145 -73 -227 -233 -237 -467 -6 -132 7 -231 47 -349 98 -288 260
-377 710 -390 123 -4 227 -1 280 6 200 27 289 129 259 295 -30 170 -167 300
-355 339 -50 10 -78 22 -97 41 -15 15 -27 29 -27 31 0 2 11 21 25 41 14 20 25
49 25 65 0 26 4 28 58 39 90 17 220 59 305 98 75 34 78 34 92 16 41 -53 225
-334 225 -344 0 -6 -7 -25 -16 -42 -9 -17 -17 -48 -19 -70 -2 -30 -12 -48 -43
-80 -23 -23 -49 -57 -58 -77 -23 -47 -29 -130 -14 -176 25 -75 111 -145 215
-174 73 -20 596 -61 784 -61 157 0 353 100 516 265 84 84 129 152 173 257 23
54 27 78 27 163 0 94 -2 105 -34 170 -99 200 -285 283 -508 227 -163 -41 -254
-89 -411 -214 l-97 -77 -25 23 c-44 42 -89 58 -156 58 l-63 0 -27 46 c-15 26
-77 121 -139 212 l-111 165 18 40 c9 22 18 57 18 79 0 32 8 47 53 95 30 33 69
92 91 137 31 63 57 96 126 164 47 47 112 122 143 166 46 66 63 83 89 88 52 10
105 51 119 91 11 29 17 35 34 31 11 -3 32 -6 46 -6 19 0 33 -10 52 -39 36 -55
103 -92 176 -98 49 -5 68 -1 113 19 50 23 98 70 98 96 0 5 10 12 23 16 28 7
83 60 103 98 24 46 28 117 11 182 -16 60 -16 60 9 82 13 13 29 35 34 49 13 35
13 127 -1 162 -6 15 -12 71 -13 123 -2 117 -22 168 -98 244 -64 63 -153 108
-269 135 -103 24 -281 45 -313 37 -22 -5 -26 0 -61 102 -174 505 -577 925
-1042 1086 -122 42 -241 66 -328 66 -56 0 -76 6 -176 55 -121 58 -194 79 -261
73 l-41 -3 -24 85 c-33 118 -33 196 2 295 69 200 37 251 -140 224z m-31 -217
c22 -45 20 -94 -5 -126 -34 -44 -55 -34 -68 31 -6 31 -11 77 -11 103 l0 47 34
-11 c24 -7 39 -21 50 -44z m-306 -232 c192 -54 368 -189 333 -254 -12 -21 -12
-21 -89 16 -89 43 -262 90 -412 112 -120 17 -398 31 -429 21 -40 -12 -21 -22
67 -34 220 -31 538 -107 698 -167 51 -19 97 -34 104 -34 20 0 0 -43 -35 -75
-40 -36 -155 -76 -240 -82 -33 -3 -107 2 -165 11 -141 21 -256 76 -368 175
-68 60 -162 176 -162 201 0 24 188 98 316 125 96 20 286 13 382 -15z m670
-261 c57 -19 82 -39 49 -39 -25 0 -117 -31 -117 -39 0 -5 31 -6 68 -3 85 6
277 -12 399 -38 133 -28 232 -63 368 -130 471 -233 822 -738 900 -1292 l6 -47
-42 -21 c-54 -28 -131 -100 -168 -158 -31 -51 -61 -139 -61 -183 0 -20 -7 -32
-27 -41 -89 -44 -104 -200 -33 -345 27 -55 98 -133 122 -133 20 0 3 -32 -58
-108 -36 -45 -95 -107 -132 -138 -51 -44 -70 -67 -83 -105 -19 -54 -20 -55
-66 -126 -25 -38 -48 -59 -86 -77 -80 -40 -133 -32 -197 29 -19 18 -62 51 -94
74 -113 78 -105 59 67 -161 78 -101 179 -235 223 -298 91 -130 214 -325 214
-337 0 -5 -25 -25 -55 -46 -30 -20 -55 -33 -55 -28 0 23 -212 323 -343 486
-174 217 -298 351 -371 399 -59 39 -76 44 -76 21 0 -20 -5 -19 -104 14 -285
97 -572 344 -759 653 l-38 63 33 11 c44 15 45 28 2 49 -98 46 -267 43 -448
-10 -154 -45 -216 -103 -216 -204 0 -31 7 -69 15 -84 14 -27 13 -28 -13 -38
-15 -6 -41 -8 -58 -5 -27 6 -33 13 -53 72 -65 181 42 323 299 397 96 28 231
47 335 47 76 0 101 9 92 34 -7 18 -69 46 -103 46 -29 0 -35 14 -75 169 -95
374 -73 746 61 1029 77 161 169 274 332 403 48 39 88 73 88 76 0 3 -13 3 -30
0 -17 -4 -30 -2 -30 4 0 25 61 128 86 144 61 40 141 45 232 14z m1906 -1374
c103 -16 221 -47 269 -72 47 -24 109 -86 128 -128 27 -59 24 -70 -10 -45 -43
30 -107 50 -160 50 -41 0 -50 4 -70 31 -31 42 -118 80 -198 87 -69 5 -93 23
-93 69 0 28 3 28 134 8z m17 -181 c26 -8 55 -24 64 -34 22 -25 15 -25 -55 0
-30 11 -78 19 -106 20 -49 0 -64 9 -64 39 0 10 103 -6 161 -25z m-11 -131
c125 -44 265 -174 330 -306 46 -93 66 -176 56 -227 -7 -38 -32 -77 -42 -67 -4
4 -1 13 5 21 22 26 9 61 -22 64 -40 5 -107 -63 -107 -107 0 -29 2 -31 20 -21
18 10 20 8 20 -19 0 -43 -40 -71 -102 -71 -88 0 -148 54 -148 133 0 49 18 89
73 161 25 33 43 66 40 73 -14 37 -98 -2 -153 -72 -27 -34 -60 -117 -60 -152 0
-18 -25 -16 -69 7 -106 54 -89 227 35 353 26 26 44 50 41 54 -11 10 -90 -25
-141 -64 -60 -46 -95 -109 -103 -187 -7 -63 -16 -67 -50 -17 -67 99 -41 269
57 370 89 91 199 117 320 74z m308 -5 c76 -36 127 -128 120 -218 l-3 -45 -24
40 c-44 72 -121 163 -172 204 -69 55 -22 67 79 19z m-780 -474 c27 -53 71 -90
125 -105 23 -7 52 -21 65 -32 66 -60 -32 -127 -119 -82 -77 41 -143 210 -112
291 6 16 8 15 13 -6 4 -14 16 -44 28 -66z m-2436 -182 c64 -104 -55 -244 -218
-259 -81 -7 -135 9 -173 52 -35 40 -40 79 -16 125 24 46 33 39 59 -42 18 -57
153 -78 217 -35 64 43 97 116 65 141 -14 11 -19 32 -17 69 1 17 2 17 32 0 17
-10 40 -33 51 -51z m228 -144 c77 -37 176 -132 208 -199 33 -67 30 -130 -8
-171 l-29 -33 -1 25 c-1 35 -33 101 -63 129 l-26 24 2 -104 c2 -88 -1 -109
-18 -138 -23 -39 -58 -66 -97 -75 -26 -6 -28 -4 -28 24 0 37 -25 100 -39 100
-6 0 -15 -19 -21 -42 -21 -86 -49 -126 -107 -154 -44 -22 -62 -25 -100 -20
-59 8 -107 38 -123 76 -16 39 -10 44 26 25 32 -17 70 -20 78 -6 3 5 -8 24 -25
42 -17 19 -43 57 -56 86 -14 29 -31 57 -39 64 -20 17 -44 3 -44 -26 0 -32 -11
-32 -43 1 -55 55 -72 182 -23 170 98 -24 185 -13 279 37 67 35 150 121 167
173 11 32 15 35 39 29 14 -3 55 -20 91 -37z m1792 -675 c-5 -25 -6 -25 -18 -8
-19 25 -17 35 5 35 14 0 17 -6 13 -27z m-915 -134 c23 -11 52 -34 64 -50 l20
-29 -47 0 c-26 0 -62 5 -80 12 -29 10 -36 9 -54 -7 -27 -24 -28 -122 -1 -181
35 -78 138 -141 201 -123 14 4 45 7 69 8 l44 1 -24 -26 c-38 -41 -79 -57 -144
-58 -150 -1 -263 118 -272 288 -3 55 0 79 14 106 39 76 125 100 210 59z m587
-89 c59 -65 54 -72 -93 -121 -105 -36 -211 -55 -357 -64 l-111 -7 -21 34 c-37
60 -33 64 75 72 53 4 135 15 182 25 93 21 258 77 267 92 9 16 21 10 58 -31z
m-893 -187 c25 -78 60 -132 121 -187 96 -87 211 -114 336 -80 13 4 22 2 22 -5
0 -6 -13 -11 -29 -11 -84 0 -265 -81 -310 -139 -60 -77 -50 -103 23 -61 110
62 277 110 386 110 62 0 140 -17 198 -42 130 -58 221 -220 179 -320 -32 -75
-113 -97 -357 -98 -242 0 -392 22 -506 74 -135 62 -220 240 -231 483 -9 187
23 311 100 399 l42 48 7 -67 c3 -37 12 -84 19 -104z m2542 1 c25 -9 66 -33 89
-55 l43 -39 -33 12 c-19 6 -65 8 -103 6 -138 -10 -253 -96 -419 -313 -201
-263 -399 -412 -593 -445 -153 -27 -307 49 -307 152 0 86 63 155 169 184 262
72 310 96 501 255 185 154 270 204 417 244 67 19 180 18 236 -1z m92 -143 c90
-42 133 -130 110 -226 -44 -189 -248 -400 -474 -488 -68 -27 -87 -29 -181 -28
-58 0 -161 5 -230 11 -69 5 -143 10 -165 10 l-40 0 69 35 c147 74 277 194 456
425 133 171 199 229 293 261 66 23 112 23 162 0z m-938 -86 c13 -9 23 -19 23
-23 0 -14 -173 -112 -209 -118 -20 -3 -64 -12 -98 -18 -40 -8 -63 -9 -63 -3 0
6 18 33 40 62 38 49 105 95 168 116 36 11 110 3 139 -16z"/>
<path d="M3721 4274 c-33 -41 -27 -57 27 -74 65 -21 66 -42 3 -77 -56 -31 -56
-31 -20 -128 29 -78 73 -141 107 -153 36 -12 71 2 89 38 39 77 -18 310 -95
393 -35 37 -83 37 -111 1z"/>
<path d="M3370 4238 c-29 -47 -27 -78 5 -78 14 0 42 -7 61 -15 49 -20 42 -44
-23 -75 -59 -28 -59 -26 -21 -127 27 -73 84 -135 123 -135 49 0 75 41 75 119
0 166 -86 343 -167 343 -27 0 -37 -6 -53 -32z"/>
<path d="M4018 3999 c-26 -15 -22 -44 8 -58 26 -11 26 -13 22 -90 -3 -59 -12
-93 -35 -142 -42 -91 -83 -133 -171 -176 -68 -34 -83 -38 -151 -37 -165 1
-304 91 -357 229 -16 44 -16 44 10 76 32 38 29 53 -10 57 -33 3 -86 -28 -117
-69 -15 -22 -17 -30 -8 -48 7 -12 21 -21 35 -21 19 0 29 -12 52 -57 96 -197
358 -289 557 -195 126 58 209 165 243 308 8 38 14 86 12 107 -3 29 0 37 13 37
52 0 64 32 26 68 -25 24 -97 30 -129 11z"/>
</g>
</svg>
